<?xml version="1.0" encoding="iso-8859-1"?>
<!-- Generator: Adobe Illustrator 19.0.0, SVG Export Plug-In . SVG Version: 6.00 Build 0)  -->
<svg version="1.1" id="Capa_1" xmlns="http://www.w3.org/2000/svg" xmlns:xlink="http://www.w3.org/1999/xlink" x="0px" y="0px"
	 viewBox="0 0 496 496" style="enable-background:new 0 0 496 496;" xml:space="preserve">
<g>
	<g>
		<g>
			<path d="M473.888,152L464,147.056V120v-8V80c0-13.232-10.768-24-24-24H312c-13.232,0-24,10.768-24,24v32v8v27.056L278.112,152
				C264.472,158.824,256,172.528,256,187.776V216v208v48c0,13.232,10.768,24,24,24h192c13.232,0,24-10.768,24-24v-48V216v-28.224
				C496,172.528,487.528,158.824,473.888,152z M304,80c0-4.416,3.592-8,8-8h128c4.408,0,8,3.584,8,8v24H304V80z M400,120v16h-48v-16
				H400z M480,472c0,4.416-3.592,8-8,8H280c-4.408,0-8-3.584-8-8v-48h208V472z M480,408H272V232h208V408z M480,216H272v-28.224
				c0-9.152,5.08-17.368,13.264-21.464L304,156.944V120h32v16c0,8.824,7.176,16,16,16h48c8.824,0,16-7.176,16-16v-16h32v36.944
				l18.736,9.368C474.92,170.408,480,178.624,480,187.776V216z"/>
			<path d="M0.024,40.672l28.616,338.56C30.184,398.32,45.352,413.4,64,415.56V496h112v-80.44
				c18.648-2.16,33.816-17.24,35.352-36.304L240,40V0H0L0.024,40.672z M160,480H80v-32h80V480z M160,432H80v-16h80V432z
				 M195.408,377.936c-1,12.376-11.504,22.064-23.92,22.064H68.512c-12.416,0-22.92-9.688-23.92-22.088L40.368,328h159.264
				L195.408,377.936z M200.984,312H39.016L24.12,136h191.736L200.984,312z M16,16h208.008l0.016,16H208v16h15.288l-6.088,72H22.768
				L16.68,48H192V32H16V16z"/>
			<path d="M120.04,277.336c22.032,0,39.96-17.928,39.96-39.96c0-5.56-1.136-10.96-3.368-16.072l-18.088-41.184
				C135.312,172.76,128.032,168,120,168s-15.312,4.76-18.536,12.112l-18.096,41.2C81.136,226.416,80,231.816,80,237.376
				C80,259.408,97.928,277.336,120.04,277.336z M98.016,227.744l18.096-41.2C116.792,185,118.32,184,120,184s3.208,1,3.888,2.544
				l18.088,41.184c1.344,3.072,2.024,6.312,2.024,9.648c0,13.208-10.752,23.96-24.04,23.96c-13.208,0-23.96-10.752-23.96-23.96
				C96,234.04,96.68,230.8,98.016,227.744z"/>
			<path d="M376.04,373.336c22.032,0,39.96-17.928,39.96-39.96c0-5.56-1.136-10.96-3.368-16.072l-18.088-41.184
				C391.312,268.76,384.032,264,376,264c-8.032,0-15.312,4.76-18.536,12.112l-18.096,41.2c-2.232,5.104-3.368,10.504-3.368,16.064
				C336,355.408,353.928,373.336,376.04,373.336z M354.016,323.744l18.096-41.2C372.792,281,374.32,280,376,280s3.208,1,3.888,2.544
				l18.088,41.184c1.344,3.072,2.024,6.312,2.024,9.648c0,13.208-10.752,23.96-24.04,23.96c-13.208,0-23.96-10.752-23.96-23.96
				C352,330.04,352.68,326.8,354.016,323.744z"/>
		</g>
	</g>
</g>
<g>
</g>
<g>
</g>
<g>
</g>
<g>
</g>
<g>
</g>
<g>
</g>
<g>
</g>
<g>
</g>
<g>
</g>
<g>
</g>
<g>
</g>
<g>
</g>
<g>
</g>
<g>
</g>
<g>
</g>
</svg>
