<?xml version="1.0" encoding="iso-8859-1"?>
<!-- Generator: Adobe Illustrator 19.0.0, SVG Export Plug-In . SVG Version: 6.00 Build 0)  -->
<svg version="1.1" id="Capa_1" xmlns="http://www.w3.org/2000/svg" xmlns:xlink="http://www.w3.org/1999/xlink" x="0px" y="0px"
	 viewBox="0 0 496 496" style="enable-background:new 0 0 496 496;" xml:space="preserve">
<g>
	<g>
		<g>
			<path d="M365.616,331.16c4.016-11.28,1.616-24.368-7.392-33.384c-9.024-9.016-22.104-11.416-33.384-7.4
				C319.696,279.552,308.744,272,295.992,272c-12.76,0-23.704,7.552-28.84,18.376c-11.288-4.016-24.376-1.616-33.384,7.4
				c-9.016,9.024-11.408,22.104-7.392,33.384c-10.832,5.136-18.384,16.088-18.384,28.84s7.552,23.704,18.376,28.84
				c-4.016,11.28-1.616,24.368,7.392,33.384c6.24,6.24,14.432,9.352,22.624,9.352c3.656,0,7.28-0.72,10.76-1.96
				C272.288,440.448,283.232,448,295.992,448s23.704-7.552,28.84-18.376c3.48,1.24,7.104,1.96,10.752,1.96
				c8.192,0,16.4-3.12,22.632-9.352c9.016-9.024,11.408-22.104,7.392-33.384c10.832-5.144,18.384-16.096,18.384-28.848
				S376.44,336.296,365.616,331.16z M327.992,306.4c6.064-3.272,13.792-2.432,18.912,2.688c5.12,5.12,5.96,12.848,2.68,18.912
				h-7.704c-3.784-5.408-8.488-10.112-13.888-13.888V306.4z M329.328,337.976c2.784,4.2,4.816,8.928,5.856,14.024H318.52
				c-0.28-0.784-0.576-1.544-0.928-2.28L329.328,337.976z M306.28,338.408c-0.744-0.352-1.504-0.648-2.28-0.928v-16.664
				c5.088,1.032,9.816,3.064,14.016,5.848L306.28,338.408z M295.992,288c7.24,0,13.304,4.864,15.272,11.472l-5.44,5.44
				c-3.2-0.56-6.472-0.912-9.832-0.912s-6.632,0.352-9.824,0.92l-5.44-5.44C282.688,292.864,288.752,288,295.992,288z M303.992,360
				c0,4.408-3.584,8-8,8c-4.416,0-8-3.592-8-8c0-4.408,3.584-8,8-8C300.408,352,303.992,355.592,303.992,360z M287.992,320.808
				v16.664c-0.784,0.28-1.544,0.576-2.28,0.928l-11.736-11.744C278.168,323.88,282.896,321.848,287.992,320.808z M274.4,349.72
				c-0.352,0.744-0.656,1.504-0.928,2.28h-16.664c1.032-5.096,3.064-9.832,5.848-14.024L274.4,349.72z M245.08,309.088
				c5.112-5.112,12.848-5.968,18.912-2.688v7.704c-5.408,3.784-10.112,8.488-13.888,13.888H242.4
				C239.112,321.936,239.96,314.208,245.08,309.088z M223.992,360c0-7.24,4.864-13.304,11.48-15.272l5.44,5.44
				c-0.568,3.2-0.92,6.472-0.92,9.832s0.352,6.632,0.92,9.824l-5.44,5.44C228.856,373.304,223.992,367.24,223.992,360z
				 M263.992,413.592c-6.064,3.28-13.8,2.44-18.912-2.68c-5.12-5.12-5.96-12.848-2.68-18.912h7.704
				c3.784,5.408,8.488,10.112,13.888,13.888V413.592z M262.648,382.024c-2.784-4.2-4.816-8.928-5.856-14.024h16.672
				c0.28,0.784,0.576,1.544,0.928,2.28L262.648,382.024z M285.704,381.592c0.744,0.352,1.504,0.648,2.28,0.928v16.664
				c-5.088-1.032-9.816-3.064-14.016-5.848L285.704,381.592z M295.992,432c-7.24,0-13.304-4.864-15.272-11.472l5.44-5.44
				c3.2,0.56,6.472,0.912,9.832,0.912s6.632-0.352,9.824-0.92l5.44,5.44C309.296,427.136,303.232,432,295.992,432z M303.992,399.192
				v-16.664c0.784-0.28,1.544-0.576,2.28-0.928l11.736,11.744C313.816,396.12,309.088,398.152,303.992,399.192z M317.584,370.28
				c0.352-0.744,0.656-1.504,0.928-2.28h16.664c-1.032,5.096-3.064,9.832-5.848,14.024L317.584,370.28z M346.904,410.912
				c-5.112,5.112-12.848,5.96-18.912,2.68v-7.704c5.408-3.784,10.112-8.488,13.888-13.888h7.704
				C352.872,398.064,352.024,405.792,346.904,410.912z M356.512,375.272l-5.44-5.44c0.568-3.2,0.92-6.472,0.92-9.832
				s-0.352-6.632-0.92-9.824l5.44-5.44c6.616,1.96,11.48,8.024,11.48,15.264S363.128,373.304,356.512,375.272z"/>
			<path d="M383.992,64c-5.856,0-11.272,1.696-16,4.448V56c0-17.648-14.352-32-32-32c-5.992,0-11.544,1.76-16.344,4.632
				C317.944,12.592,304.488,0,287.992,0c-16.496,0-29.952,12.592-31.656,28.632C251.536,25.76,245.984,24,239.992,24
				c-17.648,0-32,14.352-32,32l0.016,183.184c0,9.272-7.536,16.816-17.24,16.816c-6.352,0-12.008-3.248-15.128-8.68l-36.168-63.096
				c-4.28-7.544-11.2-12.928-19.504-15.152c-8.2-2.208-16.776-1.024-24.104,3.296c-14.92,8.784-20.2,28.12-12,43.416l33.848,95.488
				c17.568,49.552,48.744,92.576,90.28,124.696V496h176v-61.608c20.944-32.256,32-69.568,32-108.08V96
				C415.992,78.352,401.64,64,383.992,64z M399.992,326.312c0,36.16-10.6,71.168-30.656,101.248l-1.344,2.016V480h-144v-52l-3.2-2.4
				c-40.608-30.464-71.04-71.84-87.992-119.672l-34.072-96.096l-0.576-1.272c-4.44-7.84-1.824-17.896,5.832-22.4
				c3.608-2.128,7.816-2.704,11.848-1.632c4.12,1.104,7.56,3.792,9.736,7.616l36.192,63.128
				c5.912,10.32,17.032,16.728,29.432,16.728c18.096,0,32.816-14.72,32.816-32.816L223.992,56c0-8.824,7.176-16,16-16
				c8.824,0,16,7.176,16,16v144h16V32c0-8.824,7.176-16,16-16c8.824,0,16,7.176,16,16v168h16V56c0-8.824,7.176-16,16-16
				c8.824,0,16,7.176,16,16v40v104h16V96c0-8.824,7.176-16,16-16c8.824,0,16,7.176,16,16V326.312z"/>
		</g>
	</g>
</g>
<g>
</g>
<g>
</g>
<g>
</g>
<g>
</g>
<g>
</g>
<g>
</g>
<g>
</g>
<g>
</g>
<g>
</g>
<g>
</g>
<g>
</g>
<g>
</g>
<g>
</g>
<g>
</g>
<g>
</g>
</svg>
