<?xml version="1.0" encoding="iso-8859-1"?>
<!-- Generator: Adobe Illustrator 19.0.0, SVG Export Plug-In . SVG Version: 6.00 Build 0)  -->
<svg version="1.1" id="Capa_1" xmlns="http://www.w3.org/2000/svg" xmlns:xlink="http://www.w3.org/1999/xlink" x="0px" y="0px"
	 viewBox="0 0 496 496" style="enable-background:new 0 0 496 496;" xml:space="preserve">
<g>
	<g>
		<g>
			<path d="M452.224,96c-10.592,0-20.112,5.888-24.84,15.352L408,150.112V40c0-13.232-10.768-24-24-24
				c-3.16,0-6.16,0.648-8.928,1.76C372.312,7.56,363.064,0,352,0c-6.168,0-11.744,2.408-16,6.24C331.744,2.408,326.168,0,320,0
				c-13.232,0-24,10.768-24,24v9.472c-2.512-0.896-5.184-1.472-8-1.472c-13.232,0-24,10.768-24,24v160l8,40.792V368h16v128h16V368
				h88v128h16V368h16v-69.576l31.536-47.304l23.928-119.64c0.36-1.792,0.536-3.616,0.536-5.44v-2.264
				C480,108.464,467.536,96,452.224,96z M464,126.04c0,0.776-0.08,1.552-0.224,2.312L440.464,244.88L408,293.576V320h-16v16h16v16
				H288v-16h88v-16h-88v-64l-8-40.792V56c0-4.408,3.592-8,8-8c4.408,0,8,3.592,8,8v112h16V56V24c0-4.408,3.592-8,8-8
				c4.408,0,8,3.592,8,8v144h16V24c0-4.408,3.592-8,8-8c4.408,0,8,3.592,8,8v16v128h16V40c0-4.408,3.592-8,8-8c4.408,0,8,3.592,8,8
				v136h20.944l28.744-57.496c2.008-4.008,6.04-6.504,10.536-6.504c6.488,0,11.776,5.288,11.776,11.776V126.04z"/>
			<path d="M208,32c-2.816,0-5.488,0.576-8,1.472V24c0-13.232-10.768-24-24-24c-6.168,0-11.744,2.408-16,6.24
				C155.744,2.408,150.168,0,144,0c-11.064,0-20.304,7.56-23.072,17.76C118.16,16.648,115.16,16,112,16c-13.232,0-24,10.768-24,24
				v110.112L68.624,111.36C63.888,101.888,54.368,96,43.776,96C28.464,96,16,108.464,16,123.776v2.264
				c0,1.824,0.176,3.648,0.536,5.448L40.464,251.12L72,298.424V368h16v128h16V368h88v128h16V368h16V256.792l7.84-39.224L232,56
				C232,42.768,221.232,32,208,32z M216,215.208l-7.84,39.224L208.048,320H192v16h16.024L208,352H88v-16h88v-16H88v-26.424
				L55.536,244.88L32.232,128.36C32.08,127.6,32,126.824,32,126.04v-2.264C32,117.288,37.288,112,43.776,112
				c4.496,0,8.528,2.496,10.528,6.512L83.056,176H104V40c0-4.408,3.592-8,8-8s8,3.592,8,8v128h16V40V24c0-4.408,3.592-8,8-8
				s8,3.592,8,8v144h16V24c0-4.408,3.592-8,8-8s8,3.592,8,8v32v112h16V56c0-4.408,3.592-8,8-8s8,3.592,8,8V215.208z"/>
		</g>
	</g>
</g>
<g>
</g>
<g>
</g>
<g>
</g>
<g>
</g>
<g>
</g>
<g>
</g>
<g>
</g>
<g>
</g>
<g>
</g>
<g>
</g>
<g>
</g>
<g>
</g>
<g>
</g>
<g>
</g>
<g>
</g>
</svg>
